<svg width="183" height="80" viewBox="0 0 183 80" fill="none" xmlns="http://www.w3.org/2000/svg">
<g clip-path="url(#clip0_1_25)">
<path d="M39.4148 49.2986C37.6329 53.4812 32.7402 55.4529 28.5787 53.662C24.4172 51.8712 22.4555 46.9536 24.2373 42.771C24.9686 42.4793 28.8515 41.0209 33.2045 42.911C37.4995 44.7719 39.113 48.5519 39.4148 49.2986Z" fill="#38F3FF"/>
<path d="M54.0933 80L53.5883 76.4299C52.9267 71.7282 50.2046 59.8571 39.2989 51.1594C31.0166 44.5559 22.1016 43.0392 16.8664 42.7942C14.5332 47.4727 14.7886 52.9619 17.6152 56.7712C20.1109 60.1371 23.8544 61.2163 25.8626 61.5546C33.2569 62.8146 38.8172 57.3429 39.4266 56.7128L42.3344 59.5654C41.0923 60.8488 34.4293 67.1547 25.1836 65.5855C22.5718 65.1422 17.6964 63.7247 14.3533 59.2154C10.2847 53.7261 10.1222 46.0551 13.947 39.6675L14.5506 38.6641L15.7172 38.6816C21.2194 38.7575 31.9278 40.07 41.8294 47.9685C51.4757 55.6628 55.3237 65.5914 56.8502 71.9032C57.477 71.0456 58.0806 70.0306 58.5624 68.8406C59.3633 66.8747 59.7232 64.7105 59.6013 62.5813L59.5839 62.243L59.6767 61.9163C61.3483 55.9195 61.9229 49.7477 61.3889 43.5817C60.9362 38.3666 59.6883 33.2565 57.6859 28.3973L57.3145 27.5047L57.773 26.6531C58.5565 25.1889 59.7986 22.1555 59.3227 18.3404C59.0789 16.3978 58.4695 14.7586 57.7498 13.4344C57.5176 14.0995 57.2507 14.747 56.9488 15.3887C56.026 17.3429 54.8072 19.1279 53.3213 20.6913L52.178 21.893L50.7676 21.0004C45.2654 17.5529 34.1856 12.2328 21.7998 15.2953C19.1068 15.9603 16.4834 16.9987 13.9993 18.3754L12.5599 19.1746L11.4803 17.9262C10.0816 16.3045 8.93818 14.4903 8.09079 12.5361C7.522 11.2236 7.09251 9.87604 6.7965 8.48768C5.4906 10.1735 4.24274 12.5361 4.07443 15.5053C3.95835 17.5704 4.40526 19.6879 5.35131 21.6421L1.70059 23.433C0.44693 20.8546 -0.139273 18.0312 0.0174346 15.272C0.423714 8.05017 5.58347 3.62841 7.15635 2.44422L10.4008 0V4.07758C10.4008 6.45763 10.8767 8.75602 11.8112 10.9086C12.2871 11.9994 12.8733 13.0319 13.564 14.0003C15.903 12.8453 18.3407 11.9469 20.8306 11.3344C33.611 8.1785 44.9984 12.9153 51.4234 16.6428C52.1431 15.7153 52.7642 14.7061 53.2691 13.6328C54.0352 12.0053 54.5228 10.2727 54.7143 8.48768L55.1728 4.27592L58.1677 7.26265C59.816 8.90769 62.6832 12.4661 63.3448 17.8329C63.873 22.103 62.747 25.6089 61.7778 27.7031C63.7395 32.6848 64.9642 37.9 65.4285 43.2259C65.9973 49.7769 65.4053 56.3278 63.6699 62.698C63.7685 65.323 63.3042 67.9714 62.3175 70.3923C60.8491 73.9974 58.5507 76.3774 56.8792 77.7425L54.0933 80Z" fill="white"/>
<path d="M90.2405 30.5732C91.5115 31.1507 92.4924 31.9732 93.1773 33.0349C93.8622 34.0966 94.2104 35.3566 94.2104 36.815C94.2104 38.25 93.868 39.5101 93.1773 40.5834C92.4924 41.6568 91.5115 42.4793 90.2405 43.0451C88.9694 43.6168 87.4662 43.8968 85.7424 43.8968H81.8131V49.2986H77.2975V29.6982H85.7366C87.472 29.704 88.9694 29.9957 90.2405 30.5732ZM88.5863 39.3234C89.2944 38.7342 89.6427 37.9 89.6427 36.815C89.6427 35.7125 89.2886 34.8666 88.5863 34.2833C87.8782 33.6941 86.8509 33.4024 85.4928 33.4024H81.8131V40.2042H85.4928C86.8451 40.2042 87.8782 39.9126 88.5863 39.3234Z" fill="white"/>
<path d="M103.363 34.5808C104.245 34.2075 105.261 34.0208 106.416 34.0208V38.0517C105.934 38.0167 105.609 37.9934 105.441 37.9934C104.199 37.9934 103.224 38.3434 102.516 39.0434C101.808 39.7434 101.46 40.7935 101.46 42.1935V49.3045H97.1124V34.2425H101.262V36.2317C101.779 35.5025 102.481 34.9542 103.363 34.5808Z" fill="white"/>
<path d="M111.75 48.5345C110.496 47.8694 109.515 46.9536 108.813 45.7752C108.105 44.5969 107.757 43.2668 107.757 41.7735C107.757 40.2801 108.111 38.9443 108.813 37.7717C109.521 36.5934 110.496 35.6775 111.75 35.0125C113.004 34.3475 114.42 34.0208 115.999 34.0208C117.577 34.0208 118.988 34.3533 120.235 35.0125C121.477 35.6775 122.453 36.5934 123.161 37.7717C123.869 38.9501 124.217 40.2801 124.217 41.7735C124.217 43.2668 123.863 44.6027 123.161 45.7752C122.453 46.9536 121.477 47.8694 120.235 48.5345C118.993 49.1995 117.577 49.5261 115.999 49.5261C114.42 49.532 113.004 49.1995 111.75 48.5345ZM118.744 44.8127C119.458 44.0544 119.818 43.0452 119.818 41.7735C119.818 40.5018 119.458 39.4926 118.744 38.7342C118.03 37.9759 117.113 37.6026 115.999 37.6026C114.884 37.6026 113.967 37.9817 113.242 38.7342C112.516 39.4868 112.156 40.5018 112.156 41.7735C112.156 43.0452 112.516 44.0544 113.242 44.8127C113.967 45.5711 114.884 45.9444 115.999 45.9444C117.113 45.9444 118.03 45.5711 118.744 44.8127Z" fill="white"/>
<path d="M130.05 48.5345C128.779 47.8694 127.786 46.9536 127.067 45.7752C126.353 44.5969 125.993 43.2668 125.993 41.7735C125.993 40.2801 126.353 38.9443 127.067 37.7717C127.781 36.5934 128.773 35.6775 130.05 35.0125C131.321 34.3475 132.755 34.0208 134.357 34.0208C135.935 34.0208 137.317 34.3533 138.495 35.0125C139.673 35.6775 140.532 36.6225 141.072 37.8534L137.7 39.6734C136.922 38.2909 135.796 37.6026 134.328 37.6026C133.196 37.6026 132.256 37.9759 131.513 38.7226C130.77 39.4693 130.398 40.4843 130.398 41.7735C130.398 43.0627 130.77 44.0777 131.513 44.8244C132.256 45.5711 133.196 45.9444 134.328 45.9444C135.813 45.9444 136.939 45.2561 137.7 43.8735L141.072 45.7227C140.532 46.9186 139.673 47.8519 138.495 48.5228C137.317 49.1936 135.935 49.532 134.357 49.532C132.761 49.532 131.327 49.1995 130.05 48.5345Z" fill="white"/>
<path d="M153.469 48.5811C153.04 48.8961 152.517 49.1353 151.896 49.2928C151.275 49.4503 150.619 49.5319 149.935 49.5319C148.153 49.5319 146.771 49.0769 145.796 48.1611C144.821 47.2452 144.334 45.9035 144.334 44.1302V37.9409H142.024V34.5808H144.334V30.9116H148.681V34.5808H152.413V37.9409H148.681V44.0718C148.681 44.7077 148.843 45.1977 149.168 45.5419C149.493 45.886 149.952 46.061 150.55 46.061C151.235 46.061 151.821 45.8744 152.303 45.501L153.469 48.5811Z" fill="white"/>
<path d="M158.327 48.5345C157.073 47.8694 156.092 46.9536 155.39 45.7752C154.682 44.5969 154.334 43.2668 154.334 41.7735C154.334 40.2801 154.688 38.9443 155.39 37.7717C156.098 36.5934 157.073 35.6775 158.327 35.0125C159.581 34.3475 160.997 34.0208 162.576 34.0208C164.154 34.0208 165.565 34.3533 166.812 35.0125C168.054 35.6775 169.03 36.5934 169.738 37.7717C170.446 38.9501 170.794 40.2801 170.794 41.7735C170.794 43.2668 170.44 44.6027 169.738 45.7752C169.03 46.9536 168.054 47.8694 166.812 48.5345C165.57 49.1995 164.154 49.5261 162.576 49.5261C160.997 49.532 159.581 49.1995 158.327 48.5345ZM165.321 44.8127C166.035 44.0544 166.395 43.0452 166.395 41.7735C166.395 40.5018 166.035 39.4926 165.321 38.7342C164.607 37.9759 163.69 37.6026 162.576 37.6026C161.461 37.6026 160.544 37.9817 159.819 38.7342C159.093 39.4868 158.733 40.5018 158.733 41.7735C158.733 43.0452 159.093 44.0544 159.819 44.8127C160.544 45.5711 161.461 45.9444 162.576 45.9444C163.69 45.9444 164.607 45.5711 165.321 44.8127Z" fill="white"/>
<path d="M179.947 34.5808C180.829 34.2075 181.845 34.0208 183 34.0208V38.0517C182.518 38.0167 182.193 37.9934 182.025 37.9934C180.783 37.9934 179.808 38.3434 179.1 39.0434C178.392 39.7434 178.043 40.7935 178.043 42.1935V49.3045H173.696V34.2425H177.846V36.2317C178.363 35.5025 179.065 34.9542 179.947 34.5808Z" fill="white"/>
<path d="M96.0503 59.4546L87.6112 79.055H83.1538L74.738 59.4546H79.6133L85.545 73.4549L91.5638 59.4546H96.0503Z" fill="white"/>
<path d="M97.8611 61.193C97.3619 60.7263 97.1066 60.1488 97.1066 59.4546C97.1066 58.7663 97.3561 58.1829 97.8611 57.7163C98.366 57.2496 99.0103 57.0162 99.8112 57.0162C100.612 57.0162 101.262 57.2379 101.761 57.6871C102.261 58.1363 102.516 58.6963 102.516 59.3671C102.516 60.0963 102.266 60.6971 101.761 61.1755C101.262 61.6538 100.612 61.8872 99.8112 61.8872C99.0103 61.893 98.3602 61.6597 97.8611 61.193ZM97.6405 63.993H101.988V79.055H97.6405V63.993Z" fill="white"/>
<path d="M107.415 78.8217C106.225 78.5125 105.279 78.1275 104.571 77.6609L106.022 74.5225C106.689 74.9541 107.496 75.3041 108.448 75.5725C109.4 75.8408 110.322 75.9808 111.234 75.9808C113.074 75.9808 113.991 75.5258 113.991 74.61C113.991 74.1783 113.741 73.8749 113.236 73.6883C112.737 73.5016 111.965 73.3441 110.926 73.2099C109.701 73.0233 108.686 72.8074 107.891 72.5682C107.095 72.3291 106.399 71.8974 105.813 71.2791C105.227 70.6665 104.936 69.7857 104.936 68.6482C104.936 67.6973 105.209 66.8515 105.76 66.1164C106.306 65.3814 107.107 64.8039 108.158 64.3956C109.208 63.9872 110.444 63.7772 111.878 63.7772C112.934 63.7772 113.991 63.8939 115.041 64.1272C116.092 64.3606 116.956 64.6814 117.647 65.0956L116.196 68.2048C114.879 67.4581 113.439 67.0848 111.878 67.0848C110.949 67.0848 110.253 67.2131 109.788 67.4756C109.324 67.7381 109.092 68.0706 109.092 68.4848C109.092 68.9515 109.342 69.2782 109.847 69.4648C110.351 69.6515 111.147 69.8265 112.244 69.9957C113.468 70.1999 114.472 70.4215 115.25 70.6549C116.028 70.8882 116.707 71.3141 117.281 71.9266C117.856 72.5391 118.146 73.4024 118.146 74.505C118.146 75.4383 117.868 76.2667 117.31 76.9958C116.753 77.725 115.941 78.2909 114.873 78.6875C113.805 79.0901 112.54 79.2884 111.071 79.2884C109.823 79.2826 108.604 79.1251 107.415 78.8217Z" fill="white"/>
<path d="M121.036 61.193C120.537 60.7263 120.282 60.1488 120.282 59.4546C120.282 58.7663 120.531 58.1829 121.036 57.7163C121.541 57.2496 122.186 57.0162 122.986 57.0162C123.787 57.0162 124.437 57.2379 124.937 57.6871C125.436 58.1363 125.691 58.6963 125.691 59.3671C125.691 60.0963 125.442 60.6971 124.937 61.1755C124.437 61.6538 123.787 61.8872 122.986 61.8872C122.191 61.893 121.541 61.6597 121.036 61.193ZM120.816 63.993H125.163V79.055H120.816V63.993Z" fill="white"/>
<path d="M132.087 78.2851C130.833 77.6201 129.853 76.7043 129.15 75.5259C128.442 74.3475 128.094 73.0175 128.094 71.5241C128.094 70.0308 128.448 68.6949 129.15 67.5224C129.858 66.344 130.833 65.4282 132.087 64.7632C133.341 64.0982 134.757 63.7715 136.336 63.7715C137.914 63.7715 139.325 64.104 140.573 64.7632C141.815 65.4282 142.79 66.344 143.498 67.5224C144.206 68.7008 144.554 70.0308 144.554 71.5241C144.554 73.0175 144.2 74.3534 143.498 75.5259C142.79 76.7043 141.815 77.6201 140.573 78.2851C139.331 78.9501 137.914 79.2768 136.336 79.2768C134.757 79.2826 133.341 78.9501 132.087 78.2851ZM139.075 74.5634C139.789 73.805 140.149 72.7958 140.149 71.5241C140.149 70.2525 139.789 69.2433 139.075 68.4849C138.361 67.7266 137.444 67.3532 136.33 67.3532C135.216 67.3532 134.298 67.7324 133.573 68.4849C132.847 69.2374 132.488 70.2525 132.488 71.5241C132.488 72.7958 132.847 73.805 133.573 74.5634C134.298 75.3217 135.216 75.6951 136.33 75.6951C137.444 75.6951 138.361 75.3217 139.075 74.5634Z" fill="white"/>
<path d="M161.061 65.4515C162.204 66.5715 162.773 68.2341 162.773 70.4333V79.0551H158.426V71.1041C158.426 69.9083 158.165 69.0157 157.648 68.4324C157.126 67.8432 156.377 67.5515 155.39 67.5515C154.293 67.5515 153.423 67.8899 152.773 68.5724C152.123 69.2549 151.798 70.2641 151.798 71.6116V79.0609H147.45V63.9931H151.6V65.7548C152.175 65.119 152.889 64.629 153.748 64.2848C154.607 63.9406 155.541 63.7656 156.563 63.7656C158.414 63.7715 159.917 64.3315 161.061 65.4515Z" fill="white"/>
<path d="M166.424 78.495C165.901 77.97 165.646 77.3166 165.646 76.5349C165.646 75.7299 165.907 75.0824 166.424 74.5866C166.946 74.0907 167.584 73.8457 168.345 73.8457C169.105 73.8457 169.749 74.0965 170.266 74.5866C170.788 75.0824 171.044 75.7299 171.044 76.5349C171.044 77.3166 170.782 77.97 170.266 78.495C169.743 79.02 169.105 79.2766 168.345 79.2766C167.584 79.2825 166.94 79.02 166.424 78.495Z" fill="white"/>
</g>
<defs>
<clipPath id="clip0_1_25">
<rect width="183" height="80" fill="white"/>
</clipPath>
</defs>
</svg>
