<svg width="57" height="69" viewBox="0 0 57 69" fill="none" xmlns="http://www.w3.org/2000/svg">
<path d="M46.9282 69L46.4908 65.9208C45.9175 61.8655 43.5593 51.6267 34.1111 44.125C26.9357 38.4295 19.2123 37.1213 14.6768 36.91C12.6554 40.9452 12.8767 45.6797 15.3254 48.9651C17.4876 51.8682 20.7308 52.799 22.4706 53.0909C28.8767 54.1776 33.6938 49.4582 34.2217 48.9148L36.7409 51.3752C35.6649 52.4821 29.8924 57.921 21.8823 56.5675C19.6196 56.1851 15.3958 54.9625 12.4995 51.0733C8.9747 46.3388 8.83391 39.7225 12.1476 34.2132L12.6705 33.3478L13.6812 33.3629C18.448 33.4283 27.7252 34.5604 36.3035 41.3728C44.6605 48.0092 47.9942 56.5726 49.3167 62.0165C49.8597 61.2769 50.3827 60.4014 50.8 59.375C51.4939 57.6795 51.8057 55.8128 51.7001 53.9764L51.685 53.6846L51.7654 53.4028C53.2136 48.2306 53.7114 42.9074 53.2488 37.5893C52.8566 33.0912 51.7755 28.6838 50.0407 24.4926L49.7189 23.7228L50.1162 22.9883C50.795 21.7254 51.871 19.1091 51.4587 15.8186C51.2475 14.1431 50.7196 12.7293 50.096 11.5872C49.8949 12.1608 49.6636 12.7193 49.4021 13.2727C48.6026 14.9582 47.5467 16.4978 46.2595 17.8462L45.2689 18.8827L44.047 18.1129C39.2802 15.1393 29.6812 10.5508 18.9508 13.1922C16.6177 13.7658 14.3449 14.6614 12.1928 15.8488L10.9458 16.5381L10.0105 15.4614C8.79871 14.0626 7.80814 12.4979 7.07401 10.8124C6.58124 9.68033 6.20914 8.51808 5.9527 7.32062C4.82134 8.77468 3.74025 10.8124 3.59443 13.3733C3.49387 15.1544 3.88105 16.9808 4.70066 18.6663L1.53786 20.211C0.451754 17.9871 -0.0561027 15.5519 0.0796611 13.1721C0.431641 6.94327 4.90179 3.1295 6.26446 2.10814L9.07527 0V3.51692C9.07527 5.56971 9.48759 7.55206 10.2971 9.40863C10.7095 10.3495 11.2173 11.24 11.8157 12.0753C13.8421 11.079 15.954 10.3042 18.1111 9.77592C29.1834 7.05396 39.0489 11.1394 44.6152 14.3545C45.2387 13.5545 45.7767 12.684 46.2142 11.7583C46.8779 10.3545 47.3003 8.86022 47.4663 7.32062L47.8635 3.68798L50.4581 6.26404C51.8861 7.68288 54.3701 10.752 54.9433 15.3809C55.4009 19.0638 54.4254 22.0877 53.5857 23.8939C55.2852 28.1907 56.3462 32.6887 56.7485 37.2823C57.2412 42.9326 56.7284 48.5828 55.2249 54.077C55.3104 56.3411 54.9081 58.6253 54.0533 60.7134C52.7812 63.8227 50.79 65.8755 49.3418 67.0529L46.9282 69Z" fill="white"/>
</svg>
