<svg width="14" height="14" viewBox="0 0 14 14" fill="none" xmlns="http://www.w3.org/2000/svg">
<path fill-rule="evenodd" clip-rule="evenodd" d="M1.75 6C1.75 3.65279 3.65279 1.75 6 1.75C8.34721 1.75 10.25 3.65279 10.25 6C10.25 7.08337 9.84464 8.07206 9.17732 8.82268L8.82268 9.17732C8.07206 9.84464 7.08337 10.25 6 10.25C3.65279 10.25 1.75 8.34721 1.75 6ZM9.50101 10.5617C8.53141 11.3069 7.31745 11.75 6 11.75C2.82436 11.75 0.25 9.17564 0.25 6C0.25 2.82436 2.82436 0.25 6 0.25C9.17564 0.25 11.75 2.82436 11.75 6C11.75 7.31745 11.3069 8.53141 10.5617 9.50101L13.5303 12.4697L12.4697 13.5303L9.50101 10.5617Z" fill="white" fill-opacity="0.5"/>
</svg>
